<?xml version="1.0" encoding="UTF-8" standalone="no"?>
<!DOCTYPE svg PUBLIC "-//W3C//DTD SVG 1.1//EN"
 "http://www.w3.org/Graphics/SVG/1.1/DTD/svg11.dtd">
<!-- Generated by graphviz version 2.38.0 (20140413.2041)
 -->
<!-- Title: %3 Pages: 1 -->
<svg width="4783pt" height="1844pt"
 viewBox="0.00 0.00 4783.31 1844.19" xmlns="http://www.w3.org/2000/svg" xmlns:xlink="http://www.w3.org/1999/xlink">
<g id="graph0" class="graph" transform="scale(1 1) rotate(0) translate(4 1840.19)">
<title>%3</title>
<polygon fill="white" stroke="none" points="-4,4 -4,-1840.19 4779.31,-1840.19 4779.31,4 -4,4"/>
<!-- 10.247.84.18 -->
<g id="node1" class="node"><title>10.247.84.18</title>
<ellipse fill="none" stroke="black" cx="1994.83" cy="-872.316" rx="57.6901" ry="18"/>
<text text-anchor="middle" x="1994.83" y="-868.616" font-family="Times,serif" font-size="14.00">10.247.84.18</text>
</g>
<!-- 87.237.20.224 -->
<g id="node2" class="node"><title>87.237.20.224</title>
<ellipse fill="none" stroke="black" cx="2186.41" cy="-872.316" rx="61.99" ry="18"/>
<text text-anchor="middle" x="2186.41" y="-868.616" font-family="Times,serif" font-size="14.00">87.237.20.224</text>
</g>
<!-- 10.247.84.18&#45;&#45;87.237.20.224 -->
<g id="edge1" class="edge"><title>10.247.84.18&#45;&#45;87.237.20.224</title>
<path fill="none" stroke="black" d="M2052.83,-872.316C2075.52,-872.316 2101.57,-872.316 2124.61,-872.316"/>
</g>
<!-- 87.237.20.73 -->
<g id="node30" class="node"><title>87.237.20.73</title>
<ellipse fill="none" stroke="black" cx="3758.13" cy="-872.316" rx="57.6901" ry="18"/>
<text text-anchor="middle" x="3758.13" y="-868.616" font-family="Times,serif" font-size="14.00">87.237.20.73</text>
</g>
<!-- 87.237.20.224&#45;&#45;87.237.20.73 -->
<g id="edge26" class="edge"><title>87.237.20.224&#45;&#45;87.237.20.73</title>
<path fill="none" stroke="black" d="M2248.51,-872.316C2501.68,-872.316 3454.11,-872.316 3699.94,-872.316"/>
</g>
<!-- 10.247.84.25 -->
<g id="node3" class="node"><title>10.247.84.25</title>
<ellipse fill="none" stroke="black" cx="333.313" cy="-1033.98" rx="57.6901" ry="18"/>
<text text-anchor="middle" x="333.313" y="-1030.28" font-family="Times,serif" font-size="14.00">10.247.84.25</text>
</g>
<!-- 10.247.84.6 -->
<g id="node4" class="node"><title>10.247.84.6</title>
<ellipse fill="none" stroke="black" cx="426.652" cy="-872.316" rx="53.0913" ry="18"/>
<text text-anchor="middle" x="426.652" y="-868.616" font-family="Times,serif" font-size="14.00">10.247.84.6</text>
</g>
<!-- 10.247.84.25&#45;&#45;10.247.84.6 -->
<g id="edge2" class="edge"><title>10.247.84.25&#45;&#45;10.247.84.6</title>
<path fill="none" stroke="black" d="M343.658,-1016.06C361.6,-984.989 398.286,-921.447 416.26,-890.315"/>
</g>
<!-- 10.247.84.9 -->
<g id="node6" class="node"><title>10.247.84.9</title>
<ellipse fill="none" stroke="black" cx="551.947" cy="-872.316" rx="53.0913" ry="18"/>
<text text-anchor="middle" x="551.947" y="-868.616" font-family="Times,serif" font-size="14.00">10.247.84.9</text>
</g>
<!-- 10.247.84.6&#45;&#45;10.247.84.9 -->
<g id="edge4" class="edge"><title>10.247.84.6&#45;&#45;10.247.84.9</title>
<path fill="none" stroke="black" d="M480.152,-872.316C486.271,-872.316 492.509,-872.316 498.626,-872.316"/>
</g>
<!-- 10.247.84.27 -->
<g id="node5" class="node"><title>10.247.84.27</title>
<ellipse fill="none" stroke="black" cx="333.313" cy="-710.647" rx="57.6901" ry="18"/>
<text text-anchor="middle" x="333.313" y="-706.947" font-family="Times,serif" font-size="14.00">10.247.84.27</text>
</g>
<!-- 10.247.84.27&#45;&#45;10.247.84.6 -->
<g id="edge3" class="edge"><title>10.247.84.27&#45;&#45;10.247.84.6</title>
<path fill="none" stroke="black" d="M343.658,-728.566C361.6,-759.642 398.286,-823.185 416.26,-854.316"/>
</g>
<!-- 10.247.84.9&#45;&#45;10.247.84.18 -->
<g id="edge5" class="edge"><title>10.247.84.9&#45;&#45;10.247.84.18</title>
<path fill="none" stroke="black" d="M605.443,-872.316C830.871,-872.316 1702.53,-872.316 1936.66,-872.316"/>
</g>
<!-- 10.248.28.145 -->
<g id="node7" class="node"><title>10.248.28.145</title>
<ellipse fill="none" stroke="black" cx="146.634" cy="-1033.98" rx="61.99" ry="18"/>
<text text-anchor="middle" x="146.634" y="-1030.28" font-family="Times,serif" font-size="14.00">10.248.28.145</text>
</g>
<!-- 10.248.28.145&#45;&#45;10.247.84.25 -->
<g id="edge6" class="edge"><title>10.248.28.145&#45;&#45;10.247.84.25</title>
<path fill="none" stroke="black" d="M208.536,-1033.98C230.081,-1033.98 254.157,-1033.98 275.369,-1033.98"/>
</g>
<!-- 10.248.28.153 -->
<g id="node8" class="node"><title>10.248.28.153</title>
<ellipse fill="none" stroke="black" cx="146.634" cy="-710.647" rx="61.99" ry="18"/>
<text text-anchor="middle" x="146.634" y="-706.947" font-family="Times,serif" font-size="14.00">10.248.28.153</text>
</g>
<!-- 10.248.28.153&#45;&#45;10.247.84.27 -->
<g id="edge7" class="edge"><title>10.248.28.153&#45;&#45;10.247.84.27</title>
<path fill="none" stroke="black" d="M208.536,-710.647C230.081,-710.647 254.157,-710.647 275.369,-710.647"/>
</g>
<!-- 108.170.232.97 -->
<g id="node9" class="node"><title>108.170.232.97</title>
<ellipse fill="none" stroke="black" cx="4422.32" cy="-1580.54" rx="66.0889" ry="18"/>
<text text-anchor="middle" x="4422.32" y="-1576.84" font-family="Times,serif" font-size="14.00">108.170.232.97</text>
</g>
<!-- 216.58.198.174 -->
<g id="node10" class="node"><title>216.58.198.174</title>
<ellipse fill="none" stroke="black" cx="4562.27" cy="-1729.77" rx="66.0889" ry="18"/>
<text text-anchor="middle" x="4562.27" y="-1726.07" font-family="Times,serif" font-size="14.00">216.58.198.174</text>
</g>
<!-- 108.170.232.97&#45;&#45;216.58.198.174 -->
<g id="edge8" class="edge"><title>108.170.232.97&#45;&#45;216.58.198.174</title>
<path fill="none" stroke="black" d="M4438.92,-1598.25C4465.86,-1626.97 4518.77,-1683.38 4545.69,-1712.09"/>
</g>
<!-- 108.170.232.99 -->
<g id="node11" class="node"><title>108.170.232.99</title>
<ellipse fill="none" stroke="black" cx="4282.37" cy="-1431.31" rx="66.0889" ry="18"/>
<text text-anchor="middle" x="4282.37" y="-1427.61" font-family="Times,serif" font-size="14.00">108.170.232.99</text>
</g>
<!-- 108.170.232.99&#45;&#45;108.170.232.97 -->
<g id="edge9" class="edge"><title>108.170.232.99&#45;&#45;108.170.232.97</title>
<path fill="none" stroke="black" d="M4298.97,-1449.02C4325.91,-1477.74 4378.82,-1534.15 4405.74,-1562.86"/>
</g>
<!-- 192.168.1.1 -->
<g id="node12" class="node"><title>192.168.1.1</title>
<ellipse fill="none" stroke="black" cx="53.2953" cy="-872.316" rx="53.0913" ry="18"/>
<text text-anchor="middle" x="53.2953" y="-868.616" font-family="Times,serif" font-size="14.00">192.168.1.1</text>
</g>
<!-- 192.168.1.1&#45;&#45;10.248.28.145 -->
<g id="edge10" class="edge"><title>192.168.1.1&#45;&#45;10.248.28.145</title>
<path fill="none" stroke="black" d="M63.6408,-890.235C81.5825,-921.311 118.269,-984.853 136.243,-1015.98"/>
</g>
<!-- 192.168.1.1&#45;&#45;10.248.28.153 -->
<g id="edge11" class="edge"><title>192.168.1.1&#45;&#45;10.248.28.153</title>
<path fill="none" stroke="black" d="M63.6408,-854.397C81.5825,-823.321 118.269,-759.778 136.243,-728.647"/>
</g>
<!-- 195.66.225.142 -->
<g id="node13" class="node"><title>195.66.225.142</title>
<ellipse fill="none" stroke="black" cx="3211.78" cy="-457.201" rx="66.0889" ry="18"/>
<text text-anchor="middle" x="3211.78" y="-453.501" font-family="Times,serif" font-size="14.00">195.66.225.142</text>
</g>
<!-- 104.244.42.65 -->
<g id="node14" class="node"><title>104.244.42.65</title>
<ellipse fill="none" stroke="black" cx="3052.5" cy="-336.181" rx="61.99" ry="18"/>
<text text-anchor="middle" x="3052.5" y="-332.481" font-family="Times,serif" font-size="14.00">104.244.42.65</text>
</g>
<!-- 195.66.225.142&#45;&#45;104.244.42.65 -->
<g id="edge12" class="edge"><title>195.66.225.142&#45;&#45;104.244.42.65</title>
<path fill="none" stroke="black" d="M3189.29,-440.119C3158.94,-417.054 3105.16,-376.197 3074.87,-353.177"/>
</g>
<!-- 195.66.225.234 -->
<g id="node15" class="node"><title>195.66.225.234</title>
<ellipse fill="none" stroke="black" cx="3571.06" cy="-193.924" rx="66.0889" ry="18"/>
<text text-anchor="middle" x="3571.06" y="-190.224" font-family="Times,serif" font-size="14.00">195.66.225.234</text>
</g>
<!-- 2.120.9.3 -->
<g id="node16" class="node"><title>2.120.9.3</title>
<ellipse fill="none" stroke="black" cx="3522.55" cy="-18" rx="44.393" ry="18"/>
<text text-anchor="middle" x="3522.55" y="-14.3" font-family="Times,serif" font-size="14.00">2.120.9.3</text>
</g>
<!-- 195.66.225.234&#45;&#45;2.120.9.3 -->
<g id="edge13" class="edge"><title>195.66.225.234&#45;&#45;2.120.9.3</title>
<path fill="none" stroke="black" d="M3566.05,-175.76C3556.73,-141.961 3536.83,-69.7897 3527.53,-36.0656"/>
</g>
<!-- 4.68.111.145 -->
<g id="node17" class="node"><title>4.68.111.145</title>
<ellipse fill="none" stroke="black" cx="4575.1" cy="-170.335" rx="57.6901" ry="18"/>
<text text-anchor="middle" x="4575.1" y="-166.635" font-family="Times,serif" font-size="14.00">4.68.111.145</text>
</g>
<!-- 4.69.159.233 -->
<g id="node18" class="node"><title>4.69.159.233</title>
<ellipse fill="none" stroke="black" cx="4717.46" cy="-48.0163" rx="57.6901" ry="18"/>
<text text-anchor="middle" x="4717.46" y="-44.3163" font-family="Times,serif" font-size="14.00">4.69.159.233</text>
</g>
<!-- 4.68.111.145&#45;&#45;4.69.159.233 -->
<g id="edge14" class="edge"><title>4.68.111.145&#45;&#45;4.69.159.233</title>
<path fill="none" stroke="black" d="M4594.9,-153.327C4621.94,-130.089 4670.18,-88.6419 4697.38,-65.2741"/>
</g>
<!-- 62.154.5.34 -->
<g id="node19" class="node"><title>62.154.5.34</title>
<ellipse fill="none" stroke="black" cx="4436.2" cy="-289.689" rx="53.0913" ry="18"/>
<text text-anchor="middle" x="4436.2" y="-285.989" font-family="Times,serif" font-size="14.00">62.154.5.34</text>
</g>
<!-- 62.154.5.34&#45;&#45;4.68.111.145 -->
<g id="edge15" class="edge"><title>62.154.5.34&#45;&#45;4.68.111.145</title>
<path fill="none" stroke="black" d="M4455.81,-272.842C4482.13,-250.223 4528.65,-210.255 4555.15,-187.483"/>
</g>
<!-- 62.157.248.233 -->
<g id="node20" class="node"><title>62.157.248.233</title>
<ellipse fill="none" stroke="black" cx="3994.34" cy="-669.353" rx="66.0889" ry="18"/>
<text text-anchor="middle" x="3994.34" y="-665.653" font-family="Times,serif" font-size="14.00">62.157.248.233</text>
</g>
<!-- 80.150.171.89 -->
<g id="node21" class="node"><title>80.150.171.89</title>
<ellipse fill="none" stroke="black" cx="4146.06" cy="-538.986" rx="61.99" ry="18"/>
<text text-anchor="middle" x="4146.06" y="-535.286" font-family="Times,serif" font-size="14.00">80.150.171.89</text>
</g>
<!-- 62.157.248.233&#45;&#45;80.150.171.89 -->
<g id="edge16" class="edge"><title>62.157.248.233&#45;&#45;80.150.171.89</title>
<path fill="none" stroke="black" d="M4014.49,-652.041C4043.51,-627.107 4096.76,-581.344 4125.83,-556.369"/>
</g>
<!-- 80.157.131.17 -->
<g id="node28" class="node"><title>80.157.131.17</title>
<ellipse fill="none" stroke="black" cx="4294.33" cy="-411.584" rx="61.99" ry="18"/>
<text text-anchor="middle" x="4294.33" y="-407.884" font-family="Times,serif" font-size="14.00">80.157.131.17</text>
</g>
<!-- 80.150.171.89&#45;&#45;80.157.131.17 -->
<g id="edge22" class="edge"><title>80.150.171.89&#45;&#45;80.157.131.17</title>
<path fill="none" stroke="black" d="M4166.06,-521.804C4194.36,-497.489 4245.8,-453.29 4274.18,-428.901"/>
</g>
<!-- 72.14.223.2 -->
<g id="node22" class="node"><title>72.14.223.2</title>
<ellipse fill="none" stroke="black" cx="4017.58" cy="-1148.97" rx="53.0913" ry="18"/>
<text text-anchor="middle" x="4017.58" y="-1145.27" font-family="Times,serif" font-size="14.00">72.14.223.2</text>
</g>
<!-- 72.14.232.193 -->
<g id="node23" class="node"><title>72.14.232.193</title>
<ellipse fill="none" stroke="black" cx="4145.53" cy="-1285.4" rx="61.99" ry="18"/>
<text text-anchor="middle" x="4145.53" y="-1281.7" font-family="Times,serif" font-size="14.00">72.14.232.193</text>
</g>
<!-- 72.14.223.2&#45;&#45;72.14.232.193 -->
<g id="edge17" class="edge"><title>72.14.223.2&#45;&#45;72.14.232.193</title>
<path fill="none" stroke="black" d="M4033.78,-1166.25C4058.26,-1192.35 4104.41,-1241.56 4129.05,-1267.83"/>
</g>
<!-- 72.14.232.193&#45;&#45;108.170.232.99 -->
<g id="edge18" class="edge"><title>72.14.232.193&#45;&#45;108.170.232.99</title>
<path fill="none" stroke="black" d="M4162.03,-1303C4188.33,-1331.04 4239.46,-1385.56 4265.8,-1413.65"/>
</g>
<!-- 80.150.170.153 -->
<g id="node24" class="node"><title>80.150.170.153</title>
<ellipse fill="none" stroke="black" cx="3133.95" cy="-1346.56" rx="66.0889" ry="18"/>
<text text-anchor="middle" x="3133.95" y="-1342.86" font-family="Times,serif" font-size="14.00">80.150.170.153</text>
</g>
<!-- 80.150.171.218 -->
<g id="node25" class="node"><title>80.150.171.218</title>
<ellipse fill="none" stroke="black" cx="3257.72" cy="-1509.47" rx="66.0889" ry="18"/>
<text text-anchor="middle" x="3257.72" y="-1505.77" font-family="Times,serif" font-size="14.00">80.150.171.218</text>
</g>
<!-- 80.150.170.153&#45;&#45;80.150.171.218 -->
<g id="edge19" class="edge"><title>80.150.170.153&#45;&#45;80.150.171.218</title>
<path fill="none" stroke="black" d="M3147.43,-1364.31C3171.24,-1395.64 3220.46,-1460.42 3244.26,-1491.74"/>
</g>
<!-- 80.150.171.93 -->
<g id="node26" class="node"><title>80.150.171.93</title>
<ellipse fill="none" stroke="black" cx="2894.27" cy="-1031.11" rx="61.99" ry="18"/>
<text text-anchor="middle" x="2894.27" y="-1027.41" font-family="Times,serif" font-size="14.00">80.150.171.93</text>
</g>
<!-- 80.150.170.153&#45;&#45;80.150.171.93 -->
<g id="edge20" class="edge"><title>80.150.170.153&#45;&#45;80.150.171.93</title>
<path fill="none" stroke="black" d="M3124.27,-1328.56C3087.72,-1272.76 2959.37,-1103.68 2911.92,-1048.6"/>
</g>
<!-- 80.231.62.58 -->
<g id="node27" class="node"><title>80.231.62.58</title>
<ellipse fill="none" stroke="black" cx="3376.38" cy="-1665.64" rx="57.6901" ry="18"/>
<text text-anchor="middle" x="3376.38" y="-1661.94" font-family="Times,serif" font-size="14.00">80.231.62.58</text>
</g>
<!-- 80.150.171.218&#45;&#45;80.231.62.58 -->
<g id="edge21" class="edge"><title>80.150.171.218&#45;&#45;80.231.62.58</title>
<path fill="none" stroke="black" d="M3271.33,-1527.38C3294.22,-1557.51 3340.15,-1617.95 3362.93,-1647.93"/>
</g>
<!-- 80.150.171.93&#45;&#45;80.150.170.153 -->
<g id="edge23" class="edge"><title>80.150.171.93&#45;&#45;80.150.170.153</title>
<path fill="none" stroke="black" d="M2903.95,-1049.12C2940.5,-1104.91 3068.84,-1273.99 3116.3,-1329.08"/>
</g>
<!-- 66.198.70.173 -->
<g id="node29" class="node"><title>66.198.70.173</title>
<ellipse fill="none" stroke="black" cx="3492.29" cy="-1818.19" rx="61.99" ry="18"/>
<text text-anchor="middle" x="3492.29" y="-1814.49" font-family="Times,serif" font-size="14.00">66.198.70.173</text>
</g>
<!-- 80.231.62.58&#45;&#45;66.198.70.173 -->
<g id="edge25" class="edge"><title>80.231.62.58&#45;&#45;66.198.70.173</title>
<path fill="none" stroke="black" d="M3389.9,-1683.44C3412.24,-1712.83 3456.57,-1771.18 3478.85,-1800.51"/>
</g>
<!-- 80.157.131.17&#45;&#45;62.154.5.34 -->
<g id="edge24" class="edge"><title>80.157.131.17&#45;&#45;62.154.5.34</title>
<path fill="none" stroke="black" d="M4314.36,-394.378C4341.4,-371.147 4389.29,-329.994 4416.28,-306.808"/>
</g>
<!-- 87.237.20.73&#45;&#45;195.66.225.142 -->
<g id="edge27" class="edge"><title>87.237.20.73&#45;&#45;195.66.225.142</title>
<path fill="none" stroke="black" d="M3736.03,-855.528C3647.99,-788.637 3322.68,-541.463 3234.15,-474.197"/>
</g>
<!-- 87.237.20.73&#45;&#45;195.66.225.234 -->
<g id="edge28" class="edge"><title>87.237.20.73&#45;&#45;195.66.225.234</title>
<path fill="none" stroke="black" d="M3753.12,-854.17C3726.6,-757.981 3602.64,-308.452 3576.08,-212.126"/>
</g>
<!-- 87.237.20.73&#45;&#45;62.157.248.233 -->
<g id="edge29" class="edge"><title>87.237.20.73&#45;&#45;62.157.248.233</title>
<path fill="none" stroke="black" d="M3777.86,-855.36C3822.21,-817.251 3929.39,-725.158 3974.16,-686.69"/>
</g>
<!-- 87.237.20.73&#45;&#45;72.14.223.2 -->
<g id="edge30" class="edge"><title>87.237.20.73&#45;&#45;72.14.223.2</title>
<path fill="none" stroke="black" d="M3774.36,-889.621C3820.95,-939.305 3954.77,-1081.99 4001.36,-1131.67"/>
</g>
<!-- 87.237.20.73&#45;&#45;80.150.170.153 -->
<g id="edge31" class="edge"><title>87.237.20.73&#45;&#45;80.150.170.153</title>
<path fill="none" stroke="black" d="M3735.91,-889.194C3639.05,-962.786 3254.17,-1255.22 3156.55,-1329.39"/>
</g>
</g>
</svg>
