<?xml version="1.0" encoding="UTF-8" standalone="no"?>
<!DOCTYPE svg PUBLIC "-//W3C//DTD SVG 1.1//EN"
 "http://www.w3.org/Graphics/SVG/1.1/DTD/svg11.dtd">
<!-- Generated by graphviz version 2.38.0 (20140413.2041)
 -->
<!-- Title: %3 Pages: 1 -->
<svg width="1048pt" height="1029pt"
 viewBox="0.00 0.00 1048.44 1028.65" xmlns="http://www.w3.org/2000/svg" xmlns:xlink="http://www.w3.org/1999/xlink">
<g id="graph0" class="graph" transform="scale(1 1) rotate(0) translate(4 1024.65)">
<title>%3</title>
<polygon fill="white" stroke="none" points="-4,4 -4,-1024.65 1044.44,-1024.65 1044.44,4 -4,4"/>
<text text-anchor="middle" x="520.221" y="-7.8" font-family="Times,serif" font-size="14.00">Simple network</text>
<!-- s1 -->
<g id="node1" class="node"><title>s1</title>
<ellipse fill="white" stroke="black" cx="444.209" cy="-464.885" rx="63.8893" ry="63.8893"/>
<text text-anchor="middle" x="444.209" y="-461.185" font-family="Times,serif" font-size="14.00">Netgear switch</text>
</g>
<!-- s2 -->
<g id="node2" class="node"><title>s2</title>
<ellipse fill="white" stroke="black" cx="839.086" cy="-464.885" rx="63.8893" ry="63.8893"/>
<text text-anchor="middle" x="839.086" y="-461.185" font-family="Times,serif" font-size="14.00">Internal switch</text>
</g>
<!-- s2&#45;&#45;s1 -->
<g id="edge7" class="edge"><title>s2&#45;&#45;s1</title>
<path fill="none" stroke="black" d="M775.203,-464.885C701.643,-464.885 581.521,-464.885 508,-464.885"/>
</g>
<!-- a -->
<g id="node3" class="node"><title>a</title>
<ellipse fill="white" stroke="black" cx="451.029" cy="-765.84" rx="67.3507" ry="67.3507"/>
<text text-anchor="middle" x="451.029" y="-769.64" font-family="Times,serif" font-size="14.00">192.168.109.1</text>
<text text-anchor="middle" x="451.029" y="-754.64" font-family="Times,serif" font-size="14.00">172.21.1.1</text>
</g>
<!-- a&#45;&#45;s1 -->
<g id="edge2" class="edge"><title>a&#45;&#45;s1</title>
<path fill="none" stroke="black" d="M449.507,-698.674C448.357,-647.915 446.788,-578.688 445.656,-528.753"/>
</g>
<!-- w1 -->
<g id="node12" class="node"><title>w1</title>
<ellipse fill="white" stroke="black" cx="455.493" cy="-962.81" rx="57.6901" ry="57.6901"/>
<text text-anchor="middle" x="455.493" y="-959.11" font-family="Times,serif" font-size="14.00">WAN switch</text>
</g>
<!-- a&#45;&#45;w1 -->
<g id="edge1" class="edge"><title>a&#45;&#45;w1</title>
<path fill="none" stroke="black" d="M452.553,-833.075C453.081,-856.367 453.668,-882.261 454.178,-904.752"/>
</g>
<!-- b -->
<g id="node4" class="node"><title>b</title>
<ellipse fill="white" stroke="black" cx="106.603" cy="-669.704" rx="61.99" ry="61.99"/>
<text text-anchor="middle" x="106.603" y="-666.004" font-family="Times,serif" font-size="14.00">193.168.109.2</text>
</g>
<!-- b&#45;&#45;s1 -->
<g id="edge3" class="edge"><title>b&#45;&#45;s1</title>
<path fill="none" stroke="black" d="M159.726,-637.476C222.489,-599.398 326.365,-536.378 389.719,-497.943"/>
</g>
<!-- c -->
<g id="node5" class="node"><title>c</title>
<ellipse fill="white" stroke="black" cx="61.7445" cy="-366.652" rx="61.99" ry="61.99"/>
<text text-anchor="middle" x="61.7445" y="-362.952" font-family="Times,serif" font-size="14.00">192.168.109.3</text>
</g>
<!-- c&#45;&#45;s1 -->
<g id="edge4" class="edge"><title>c&#45;&#45;s1</title>
<path fill="none" stroke="black" d="M121.925,-382.109C193.029,-400.371 310.707,-430.596 382.479,-449.03"/>
</g>
<!-- d -->
<g id="node6" class="node"><title>d</title>
<ellipse fill="white" stroke="black" cx="247.091" cy="-122.725" rx="61.99" ry="61.99"/>
<text text-anchor="middle" x="247.091" y="-119.025" font-family="Times,serif" font-size="14.00">192.168.109.4</text>
</g>
<!-- d&#45;&#45;s1 -->
<g id="edge5" class="edge"><title>d&#45;&#45;s1</title>
<path fill="none" stroke="black" d="M278.107,-176.564C314.753,-240.175 375.403,-345.451 412.394,-409.66"/>
</g>
<!-- e -->
<g id="node7" class="node"><title>e</title>
<ellipse fill="white" stroke="black" cx="551.082" cy="-84.7445" rx="61.99" ry="61.99"/>
<text text-anchor="middle" x="551.082" y="-81.0445" font-family="Times,serif" font-size="14.00">192.168.109.5</text>
</g>
<!-- e&#45;&#45;s1 -->
<g id="edge6" class="edge"><title>e&#45;&#45;s1</title>
<path fill="none" stroke="black" d="M534.266,-144.56C514.397,-215.231 481.514,-332.194 461.458,-403.53"/>
</g>
<!-- w -->
<g id="node8" class="node"><title>w</title>
<ellipse fill="white" stroke="black" cx="699.476" cy="-325.274" rx="61.99" ry="61.99"/>
<text text-anchor="middle" x="699.476" y="-321.574" font-family="Times,serif" font-size="14.00">192.168.109.6</text>
</g>
<!-- w&#45;&#45;s2 -->
<g id="edge11" class="edge"><title>w&#45;&#45;s2</title>
<path fill="none" stroke="black" d="M743.266,-369.065C759.42,-385.218 777.742,-403.54 794.007,-419.806"/>
</g>
<!-- x -->
<g id="node9" class="node"><title>x</title>
<ellipse fill="white" stroke="black" cx="978.697" cy="-325.274" rx="61.99" ry="61.99"/>
<text text-anchor="middle" x="978.697" y="-321.574" font-family="Times,serif" font-size="14.00">192.168.109.7</text>
</g>
<!-- x&#45;&#45;s2 -->
<g id="edge10" class="edge"><title>x&#45;&#45;s2</title>
<path fill="none" stroke="black" d="M934.906,-369.065C918.753,-385.218 900.431,-403.54 884.165,-419.806"/>
</g>
<!-- y -->
<g id="node10" class="node"><title>y</title>
<ellipse fill="white" stroke="black" cx="978.697" cy="-604.495" rx="61.99" ry="61.99"/>
<text text-anchor="middle" x="978.697" y="-600.795" font-family="Times,serif" font-size="14.00">192.168.109.8</text>
</g>
<!-- y&#45;&#45;s2 -->
<g id="edge9" class="edge"><title>y&#45;&#45;s2</title>
<path fill="none" stroke="black" d="M934.906,-560.704C918.753,-544.551 900.431,-526.229 884.165,-509.964"/>
</g>
<!-- z -->
<g id="node11" class="node"><title>z</title>
<ellipse fill="white" stroke="black" cx="699.476" cy="-604.495" rx="61.99" ry="61.99"/>
<text text-anchor="middle" x="699.476" y="-600.795" font-family="Times,serif" font-size="14.00">192.168.109.9</text>
</g>
<!-- z&#45;&#45;s2 -->
<g id="edge8" class="edge"><title>z&#45;&#45;s2</title>
<path fill="none" stroke="black" d="M743.266,-560.704C759.42,-544.551 777.742,-526.229 794.007,-509.964"/>
</g>
</g>
</svg>
