<?xml version="1.0" encoding="UTF-8" standalone="no"?>
<!DOCTYPE svg PUBLIC "-//W3C//DTD SVG 1.1//EN"
 "http://www.w3.org/Graphics/SVG/1.1/DTD/svg11.dtd">
<!-- Generated by graphviz version 2.38.0 (20140413.2041)
 -->
<!-- Title: %3 Pages: 1 -->
<svg width="1105pt" height="780pt"
 viewBox="0.00 0.00 1104.77 780.07" xmlns="http://www.w3.org/2000/svg" xmlns:xlink="http://www.w3.org/1999/xlink">
<g id="graph0" class="graph" transform="scale(1 1) rotate(0) translate(4 776.073)">
<title>%3</title>
<polygon fill="white" stroke="none" points="-4,4 -4,-776.073 1100.77,-776.073 1100.77,4 -4,4"/>
<!-- 10.226.1.3 -->
<g id="node1" class="node"><title>10.226.1.3</title>
<ellipse fill="cyan" stroke="black" cx="569.342" cy="-594.331" rx="48.9926" ry="18"/>
<text text-anchor="middle" x="569.342" y="-590.631" font-family="Times,serif" font-size="14.00">10.226.1.3</text>
</g>
<!-- unknown -->
<g id="node2" class="node"><title>unknown</title>
<ellipse fill="cyan" stroke="black" cx="894.026" cy="-594.331" rx="43.5923" ry="18"/>
<text text-anchor="middle" x="894.026" y="-590.631" font-family="Times,serif" font-size="14.00">unknown</text>
</g>
<!-- 10.226.1.3&#45;&#45;unknown -->
<g id="edge1" class="edge"><title>10.226.1.3&#45;&#45;unknown</title>
<path fill="none" stroke="black" d="M618.302,-594.331C681.369,-594.331 790.035,-594.331 850.398,-594.331"/>
</g>
<!-- 10.22.0.5 -->
<g id="node3" class="node"><title>10.22.0.5</title>
<ellipse fill="cyan" stroke="black" cx="894.026" cy="-434.589" rx="44.393" ry="18"/>
<text text-anchor="middle" x="894.026" y="-430.889" font-family="Times,serif" font-size="14.00">10.22.0.5</text>
</g>
<!-- 10.22.0.5&#45;&#45;unknown -->
<g id="edge2" class="edge"><title>10.22.0.5&#45;&#45;unknown</title>
<path fill="none" stroke="black" d="M894.026,-452.603C894.026,-483.282 894.026,-545.336 894.026,-576.138"/>
</g>
<!-- 10.22.0.4 -->
<g id="node4" class="node"><title>10.22.0.4</title>
<ellipse fill="cyan" stroke="black" cx="894.026" cy="-754.073" rx="44.393" ry="18"/>
<text text-anchor="middle" x="894.026" y="-750.373" font-family="Times,serif" font-size="14.00">10.22.0.4</text>
</g>
<!-- 10.22.0.4&#45;&#45;unknown -->
<g id="edge3" class="edge"><title>10.22.0.4&#45;&#45;unknown</title>
<path fill="none" stroke="black" d="M894.026,-736.059C894.026,-705.379 894.026,-643.326 894.026,-612.524"/>
</g>
<!-- 192.168.109.1 -->
<g id="node5" class="node"><title>192.168.109.1</title>
<ellipse fill="cyan" stroke="black" cx="61.7445" cy="-230.331" rx="61.99" ry="18"/>
<text text-anchor="middle" x="61.7445" y="-226.631" font-family="Times,serif" font-size="14.00">192.168.109.1</text>
</g>
<!-- foonet -->
<g id="node6" class="node"><title>foonet</title>
<ellipse fill="cyan" stroke="black" cx="475.025" cy="-230.331" rx="33.2948" ry="18"/>
<text text-anchor="middle" x="475.025" y="-226.631" font-family="Times,serif" font-size="14.00">foonet</text>
</g>
<!-- 192.168.109.1&#45;&#45;foonet -->
<g id="edge4" class="edge"><title>192.168.109.1&#45;&#45;foonet</title>
<path fill="none" stroke="black" d="M123.617,-230.331C212.337,-230.331 372.608,-230.331 441.77,-230.331"/>
</g>
<!-- 10.226.0.2 -->
<g id="node7" class="node"><title>10.226.0.2</title>
<ellipse fill="cyan" stroke="black" cx="725.292" cy="-327.331" rx="48.9926" ry="18"/>
<text text-anchor="middle" x="725.292" y="-323.631" font-family="Times,serif" font-size="14.00">10.226.0.2</text>
</g>
<!-- barnet -->
<g id="node8" class="node"><title>barnet</title>
<ellipse fill="cyan" stroke="black" cx="1048.03" cy="-327.331" rx="32.4942" ry="18"/>
<text text-anchor="middle" x="1048.03" y="-323.631" font-family="Times,serif" font-size="14.00">barnet</text>
</g>
<!-- 10.226.0.2&#45;&#45;barnet -->
<g id="edge5" class="edge"><title>10.226.0.2&#45;&#45;barnet</title>
<path fill="none" stroke="black" d="M774.308,-327.331C840.963,-327.331 958.39,-327.331 1015.29,-327.331"/>
</g>
<!-- 10.226.0.1 -->
<g id="node9" class="node"><title>10.226.0.1</title>
<ellipse fill="cyan" stroke="black" cx="1048.03" cy="-174.088" rx="48.9926" ry="18"/>
<text text-anchor="middle" x="1048.03" y="-170.388" font-family="Times,serif" font-size="14.00">10.226.0.1</text>
</g>
<!-- 10.226.0.1&#45;&#45;barnet -->
<g id="edge6" class="edge"><title>10.226.0.1&#45;&#45;barnet</title>
<path fill="none" stroke="black" d="M1048.03,-192.269C1048.03,-221.762 1048.03,-279.696 1048.03,-309.174"/>
</g>
<!-- 192.168.109.3 -->
<g id="node10" class="node"><title>192.168.109.3</title>
<ellipse fill="cyan" stroke="black" cx="278.802" cy="-135.835" rx="61.99" ry="18"/>
<text text-anchor="middle" x="278.802" y="-132.135" font-family="Times,serif" font-size="14.00">192.168.109.3</text>
</g>
<!-- 192.168.109.3&#45;&#45;foonet -->
<g id="edge7" class="edge"><title>192.168.109.3&#45;&#45;foonet</title>
<path fill="none" stroke="black" d="M311.204,-151.439C350.173,-170.206 414.74,-201.299 450.055,-218.306"/>
</g>
<!-- 192.168.109.2 -->
<g id="node11" class="node"><title>192.168.109.2</title>
<ellipse fill="cyan" stroke="black" cx="426.562" cy="-18" rx="61.99" ry="18"/>
<text text-anchor="middle" x="426.562" y="-14.3" font-family="Times,serif" font-size="14.00">192.168.109.2</text>
</g>
<!-- 192.168.109.2&#45;&#45;foonet -->
<g id="edge8" class="edge"><title>192.168.109.2&#45;&#45;foonet</title>
<path fill="none" stroke="black" d="M430.694,-36.1032C439.85,-76.2185 461.757,-172.201 470.903,-212.273"/>
</g>
<!-- 192.168.109.5 -->
<g id="node12" class="node"><title>192.168.109.5</title>
<ellipse fill="cyan" stroke="black" cx="610.816" cy="-60.0547" rx="61.99" ry="18"/>
<text text-anchor="middle" x="610.816" y="-56.3547" font-family="Times,serif" font-size="14.00">192.168.109.5</text>
</g>
<!-- 192.168.109.5&#45;&#45;foonet -->
<g id="edge9" class="edge"><title>192.168.109.5&#45;&#45;foonet</title>
<path fill="none" stroke="black" d="M596.795,-77.6359C570.503,-110.605 514.13,-181.295 488.366,-213.602"/>
</g>
<!-- 192.168.109.4 -->
<g id="node13" class="node"><title>192.168.109.4</title>
<ellipse fill="cyan" stroke="black" cx="692.816" cy="-230.331" rx="61.99" ry="18"/>
<text text-anchor="middle" x="692.816" y="-226.631" font-family="Times,serif" font-size="14.00">192.168.109.4</text>
</g>
<!-- 192.168.109.4&#45;&#45;foonet -->
<g id="edge10" class="edge"><title>192.168.109.4&#45;&#45;foonet</title>
<path fill="none" stroke="black" d="M630.989,-230.331C591.123,-230.331 540.836,-230.331 508.314,-230.331"/>
</g>
<!-- 192.168.109.7 -->
<g id="node14" class="node"><title>192.168.109.7</title>
<ellipse fill="cyan" stroke="black" cx="610.816" cy="-400.607" rx="61.99" ry="18"/>
<text text-anchor="middle" x="610.816" y="-396.907" font-family="Times,serif" font-size="14.00">192.168.109.7</text>
</g>
<!-- 192.168.109.7&#45;&#45;foonet -->
<g id="edge11" class="edge"><title>192.168.109.7&#45;&#45;foonet</title>
<path fill="none" stroke="black" d="M596.795,-383.026C570.503,-350.057 514.13,-279.367 488.366,-247.06"/>
</g>
<!-- 10.226.0.4 -->
<g id="node15" class="node"><title>10.226.0.4</title>
<ellipse fill="cyan" stroke="black" cx="1048.03" cy="-480.574" rx="48.9926" ry="18"/>
<text text-anchor="middle" x="1048.03" y="-476.874" font-family="Times,serif" font-size="14.00">10.226.0.4</text>
</g>
<!-- 10.226.0.4&#45;&#45;barnet -->
<g id="edge12" class="edge"><title>10.226.0.4&#45;&#45;barnet</title>
<path fill="none" stroke="black" d="M1048.03,-462.393C1048.03,-432.9 1048.03,-374.966 1048.03,-345.488"/>
</g>
<!-- 192.168.109.6 -->
<g id="node16" class="node"><title>192.168.109.6</title>
<ellipse fill="cyan" stroke="black" cx="426.562" cy="-442.662" rx="61.99" ry="18"/>
<text text-anchor="middle" x="426.562" y="-438.962" font-family="Times,serif" font-size="14.00">192.168.109.6</text>
</g>
<!-- 192.168.109.6&#45;&#45;foonet -->
<g id="edge13" class="edge"><title>192.168.109.6&#45;&#45;foonet</title>
<path fill="none" stroke="black" d="M430.694,-424.558C439.85,-384.443 461.757,-288.461 470.903,-248.388"/>
</g>
<!-- 192.168.109.8 -->
<g id="node17" class="node"><title>192.168.109.8</title>
<ellipse fill="cyan" stroke="black" cx="278.802" cy="-324.827" rx="61.99" ry="18"/>
<text text-anchor="middle" x="278.802" y="-321.127" font-family="Times,serif" font-size="14.00">192.168.109.8</text>
</g>
<!-- 192.168.109.8&#45;&#45;foonet -->
<g id="edge14" class="edge"><title>192.168.109.8&#45;&#45;foonet</title>
<path fill="none" stroke="black" d="M311.204,-309.223C350.173,-290.456 414.74,-259.363 450.055,-242.356"/>
</g>
</g>
</svg>
